<svg width="34" height="34" viewBox="0 0 34 34" fill="none" xmlns="http://www.w3.org/2000/svg">
<circle cx="17" cy="17" r="16" fill="#242424"/>
<path d="M11.6 12.7143H10.4C10.0675 12.7143 9.8 13.0009 9.8 13.3571V16.1429H9.2C9.09 16.1429 9 16.2393 9 16.3571V17.6429C9 17.7607 9.09 17.8571 9.2 17.8571H9.8V20.6429C9.8 20.9991 10.0675 21.2857 10.4 21.2857H11.6C11.9325 21.2857 12.2 20.9991 12.2 20.6429V13.3571C12.2 13.0009 11.9325 12.7143 11.6 12.7143ZM24.8 16.1429H24.2V13.3571C24.2 13.0009 23.9325 12.7143 23.6 12.7143H22.4C22.0675 12.7143 21.8 13.0009 21.8 13.3571V20.6429C21.8 20.9991 22.0675 21.2857 22.4 21.2857H23.6C23.9325 21.2857 24.2 20.9991 24.2 20.6429V17.8571H24.8C24.91 17.8571 25 17.7607 25 17.6429V16.3571C25 16.2393 24.91 16.1429 24.8 16.1429ZM20.4 11H19.2C18.8675 11 18.6 11.2866 18.6 11.6429V16.1429H15.4V11.6429C15.4 11.2866 15.1325 11 14.8 11H13.6C13.2675 11 13 11.2866 13 11.6429V22.3571C13 22.7134 13.2675 23 13.6 23H14.8C15.1325 23 15.4 22.7134 15.4 22.3571V17.8571H18.6V22.3571C18.6 22.7134 18.8675 23 19.2 23H20.4C20.7325 23 21 22.7134 21 22.3571V11.6429C21 11.2866 20.7325 11 20.4 11Z" fill="#F4F4F4"/>
</svg>
