<svg width="34" height="34" viewBox="0 0 34 34" fill="none" xmlns="http://www.w3.org/2000/svg">
<path d="M33 17C33 25.8366 25.8366 33 17 33C8.16344 33 1 25.8366 1 17C1 8.16344 8.16344 1 17 1C25.8366 1 33 8.16344 33 17Z" fill="#F4F4F4" fill-opacity="0.2"/>
<path d="M24.7293 12.6511C24.4611 12.3186 23.9834 12.2749 23.6631 12.5522L21.5637 14.3829L20.5983 11.8997C20.564 11.8065 20.5119 11.7283 20.452 11.6592C20.2547 11.2036 19.9122 10.8123 19.44 10.5856C19.235 10.489 19.0233 10.4372 18.8116 10.4119C18.765 10.3866 18.7229 10.3532 18.6697 10.3359L14.9754 9.26692C14.7681 9.20824 14.5597 9.24621 14.3891 9.34977C14.1862 9.42112 14.0122 9.57416 13.9291 9.79624L12.538 13.5096C12.3873 13.9135 12.5801 14.3691 12.9703 14.5279C13.3582 14.6844 13.7983 14.4831 13.9501 14.078L15.125 10.9423L16.8076 11.4279C16.7666 11.497 16.7222 11.5614 16.689 11.6351L14.532 16.4887C14.501 16.5601 14.4844 16.6326 14.4622 16.7062L11.8408 21.2688L7.45378 22.7923C6.95721 23.1778 6.85192 23.9039 7.2188 24.4194C7.5879 24.936 8.28951 25.0454 8.78497 24.6645L13.274 23.0592C13.4114 22.9557 13.5112 22.8199 13.5866 22.6738C13.6431 22.6116 13.7074 22.5621 13.7506 22.4851L15.3135 19.7648L18.0878 22.2192L15.1195 25.6921C14.7105 26.1708 14.7515 26.9084 15.2148 27.3318C15.677 27.7587 16.3853 27.7138 16.7965 27.2329L20.5008 22.9005C20.6161 22.767 20.6848 22.6128 20.7313 22.4517C20.759 22.3642 20.759 22.2733 20.7657 22.1824C20.7657 22.1364 20.7823 22.095 20.779 22.0524C20.769 21.7348 20.6449 21.4264 20.3944 21.2066L17.8417 18.9466C18.0257 18.7648 18.182 18.5485 18.2951 18.2942L19.9488 14.5763L20.4786 16.0411C20.5008 16.1711 20.5429 16.2989 20.6316 16.4059C20.7114 16.5048 20.8134 16.5704 20.922 16.6165C20.9331 16.6222 20.9464 16.6234 20.9597 16.6268C21.0284 16.6521 21.0982 16.6763 21.1703 16.6798C21.2556 16.6878 21.3421 16.6763 21.4296 16.651C21.4318 16.6498 21.4329 16.6498 21.4329 16.6498C21.4562 16.6441 21.4795 16.6487 21.5028 16.6383C21.6258 16.59 21.72 16.5083 21.8009 16.4128L24.8136 13.7581C25.1339 13.4785 24.9987 12.9837 24.7293 12.6511Z" fill="#F4F4F4"/>
<path d="M20.9191 10.7592C22.0853 10.7592 23.0306 9.77775 23.0306 8.56709C23.0306 7.35643 22.0853 6.375 20.9191 6.375C19.753 6.375 18.8076 7.35643 18.8076 8.56709C18.8076 9.77775 19.753 10.7592 20.9191 10.7592Z" fill="#F4F4F4"/>
</svg>
