<svg aria-hidden="true" style="position:absolute;width:0;height:0;overflow:hidden" xmlns="http://www.w3.org/2000/svg">
  <defs>
    <symbol id="logo" viewBox="0 0 176 32">
      <path d="M6.64 17.707 0 6.667h3.973l4.453 7.653h.053l4.453-7.653h3.973l-6.64 11.04v7.627H6.638v-7.627zm10.254 4.56V9.734l3.067-3.067h9.6l3.067 3.067v12.533l-3.067 3.067h-9.6l-3.067-3.067zm10.746-.027L29 20.88v-9.76l-1.36-1.36h-5.76l-1.36 1.36v9.76l1.36 1.36h5.76zm7.526-.107V6.666h3.627v14.213l1.36 1.36h5.227l1.36-1.36V6.666h3.627v15.467l-3.2 3.2h-8.8l-3.2-3.2zm32.671-2.986v6.187H64.21v-5.36l-1.6-1.787h-5.813v7.147H53.17V6.667h11.707l2.853 2.88V15.2l-1.813 1.84 1.92 2.107zM56.797 15.2h6.427l.933-.933V10.64l-.933-.933h-6.427V15.2zm20.301-8.533h13.493v3.067h-9.867v4.72h9.093v3.013h-9.093v4.8h9.867v3.067H77.098V6.667zm15.505 0h3.253l8.32 12.667h.053V6.667h3.493v18.667h-3.253l-8.32-12.64h-.053v12.64h-3.493V6.667zm17.927 0h13.493v3.067h-9.867v4.72h9.093v3.013h-9.093v4.8h9.867v3.067H110.53V6.667zm30.173 12.48v6.187h-3.627v-5.36l-1.6-1.787h-5.814v7.147h-3.627V6.667h11.707l2.853 2.88V15.2l-1.813 1.84 1.92 2.107zM129.662 15.2h6.427l.933-.933V10.64l-.933-.933h-6.427V15.2zm13.435 7.067V9.734l3.067-3.067h9.28l3.013 3.013v2.853h-3.627v-1.52l-1.253-1.253h-5.493l-1.36 1.36v9.76l1.36 1.36h5.547l1.307-1.307v-2.907h-4v-3.093h7.52v7.333l-3.067 3.067h-9.227l-3.067-3.067zm22.007-4.56-6.64-11.04h3.973l4.453 7.653h.053l4.453-7.653h3.973l-6.64 11.04v7.627h-3.627v-7.627z"/>
    </symbol>
    <symbol id="facebook" viewBox="0 0 28 28">
      <path d="M17.08 4.06h.84v3.15h-1.05c-.42 0-.84 0-1.05.21-.21.21-.21.42-.21.91v1.12h2.31v2.66h-2.31v11.55h-3.57V12.04h-1.89V9.38h1.89v-.91c0-1.54.21-2.66.63-3.15.63-.91 1.89-1.33 3.78-1.33.21.07.42.07.63.07Z"/>
    </symbol>
    <symbol id="instagram" viewBox="0 0 28 28">
      <path d="M25.128 9.412a8.098 8.098 0 0 0-.521-2.752 5.73 5.73 0 0 0-3.276-3.27 8.23 8.23 0 0 0-2.719-.522C17.416 2.815 17.036 2.8 14 2.8c-3.038 0-3.427 0-4.615.068-.93.02-1.849.195-2.718.522A5.726 5.726 0 0 0 3.39 6.66a8.127 8.127 0 0 0-.522 2.713c-.053 1.196-.07 1.575-.07 4.607 0 3.033 0 3.42.07 4.607.02.93.195 1.846.522 2.716a5.73 5.73 0 0 0 3.276 3.269 8.2 8.2 0 0 0 2.718.559c1.198.053 1.577.07 4.615.07 3.037 0 3.427 0 4.615-.07a8.208 8.208 0 0 0 2.719-.52 5.736 5.736 0 0 0 3.275-3.27c.327-.87.502-1.786.521-2.716.054-1.195.07-1.574.07-4.608-.003-3.032-.003-3.417-.072-4.605ZM13.99 19.715a5.744 5.744 0 0 1-5.75-5.741 5.745 5.745 0 0 1 5.75-5.741c3.175 0 5.75 2.57 5.75 5.741a5.746 5.746 0 0 1-5.75 5.74Zm5.98-10.356a1.338 1.338 0 1 1 0-2.677 1.339 1.339 0 1 1 0 2.677Z"/>
      <path d="M13.993 17.479a3.503 3.503 0 1 0 0-7.007 3.503 3.503 0 0 0 0 7.007Z"/>
    </symbol>
    <symbol id="youtube" viewBox="0 0 28 28">
      <path d="M21.21 5.25c-1.19-.07-3.64-.14-7.35-.14h-.49c-3.57 0-5.95.07-7.14.21-1.61.14-2.73.56-3.36 1.12-.56.49-.98 1.4-1.12 2.59-.07.77-.14 2.38-.14 4.83v.35c0 2.31.07 3.92.21 4.69.21 1.12.56 1.96 1.26 2.45.7.56 1.89.91 3.57 1.05 1.19.07 3.64.14 7.35.14h.49c3.57 0 5.95-.07 7.14-.21 1.61-.14 2.73-.56 3.36-1.12.56-.49.98-1.4 1.12-2.59.07-.77.14-2.38.14-4.83v-.35c0-2.31-.07-3.92-.21-4.69-.21-1.12-.56-1.96-1.26-2.45-.7-.56-1.89-.91-3.57-1.05Zm-2.73 8.61-7.7 4.62V9.24l7.7 4.62Z"/>
    </symbol>
    <symbol id="sun" viewBox="0 0 32 32">
      <path d="m14.254 13.505.363.372L10.151 1.08l5.321 12.466.018-.52.441-13.027.441 13.026.018.52 5.321-12.466-4.466 12.797 9.465-9.702-8.787 10.32 12.331-5.628-11.922 6.449 13.531-.793-13.446 1.707 12.904 4.148-13.155-3.266 10.534 8.53-11.087-7.798 6.741 11.759-7.521-11.276 2.038 13.4-2.94-13.232-2.94 13.232 2.038-13.4-7.521 11.276 6.741-11.759-11.087 7.798 10.534-8.53L.541 20.377l12.904-4.148-13.446-1.707 13.531.793L1.608 8.866l12.331 5.628-8.787-10.32 9.102 9.33zm.931.566-.646.4-.458.607-.208.731.07.757.339.68.562.512.709.275h.76l.709-.275.562-.512.339-.68.07-.757-.208-.731-.458-.607-.646-.4-.747-.14-.747.14z"/>
    </symbol>
    <symbol id="star" viewBox="0 0 34 32">
      <path d="M15.24 1.561c.504-1.552 2.699-1.552 3.204 0l2.558 7.872a1.684 1.684 0 0 0 1.602 1.164h8.277c1.632 0 2.31 2.088.99 3.047l-6.696 4.865a1.685 1.685 0 0 0-.612 1.883l2.558 7.872c.504 1.552-1.272 2.842-2.592 1.883l-6.696-4.865a1.684 1.684 0 0 0-1.98 0l-6.696 4.865c-1.32.959-3.096-.331-2.592-1.883l2.558-7.872a1.685 1.685 0 0 0-.612-1.883l-6.696-4.865c-1.32-.959-.642-3.047.99-3.047h8.277c.73 0 1.376-.47 1.602-1.164l2.558-7.872z"/>
    </symbol>
    <symbol id="heart" viewBox="0 0 32 32">
      <path stroke-linejoin="round" stroke-linecap="round" stroke-width="2.4" d="M27.787 6.147a7.345 7.345 0 0 0-5.187-2.15 7.33 7.33 0 0 0-5.187 2.15L16 7.56l-1.413-1.413a7.333 7.333 0 0 0-10.374 0 7.333 7.333 0 0 0 0 10.374L16 28.308l11.787-11.787a7.345 7.345 0 0 0 2.15-5.187 7.33 7.33 0 0 0-2.15-5.187z"/>
    </symbol>
    <symbol id="trash" viewBox="0 0 32 32">
      <path stroke-linejoin="round" stroke-linecap="round" stroke-width="2.4" d="M21.333 8V6.933c0-1.493 0-2.24-.291-2.811a2.666 2.666 0 0 0-1.165-1.165c-.57-.291-1.317-.291-2.811-.291h-2.133c-1.493 0-2.24 0-2.811.291-.502.256-.91.664-1.165 1.165-.291.57-.291 1.317-.291 2.811V8m2.667 7.333V22m5.334-6.667V22M4 8h24m-2.667 0v14.933c0 2.24 0 3.36-.436 4.216a3.996 3.996 0 0 1-1.748 1.748c-.856.436-1.976.436-4.216.436h-5.867c-2.24 0-3.36 0-4.216-.436a3.996 3.996 0 0 1-1.748-1.748c-.436-.856-.436-1.976-.436-4.216V8"/>
    </symbol>
    <symbol id="x-mark" viewBox="0 0 32 32">
      <path stroke-linejoin="round" stroke-linecap="round" stroke-width="2.667" d="M22.667 9.333 9.334 22.666M9.333 9.333l13.333 13.333"/>
    </symbol>
    <symbol id="search" viewBox="0 0 32 32">
      <path stroke-linejoin="round" stroke-linecap="round" stroke-width="2.667" d="M14.667 25.333c5.891 0 10.667-4.776 10.667-10.667S20.558 3.999 14.667 3.999 4 8.775 4 14.666s4.776 10.667 10.667 10.667zM28 28l-5.8-5.8"/>
    </symbol>
    <symbol id="arrow" viewBox="0 0 33 32">
      <path d="M17.62 5.478v25.528h-2.717V5.478L2.14 18.242l-1.92-1.92L16.26.278 32.304 16.32l-1.92 1.92L17.618 5.479Z"/>
    </symbol>
    <symbol id="burger-menu" viewBox="0 0 32 32">
      <path stroke-linejoin="round" stroke-linecap="round" stroke-width="2" d="M28 13.333H4M28 8H4M28 18.667H4M28 24H4"/>
    </symbol>
    <symbol id="commas" viewBox="0 0 32 32">
      <path d="M8.201 17.469c1.546-.613 2.785-.452 3.719.481s1.21 2.421.831 4.463c-.292 1.517-.933 2.683-1.925 3.5-.963.787-2.085 1.181-3.369 1.181-1.75 0-2.96-.671-3.631-2.013-.671-1.371-.802-3.208-.394-5.512.233-1.254.613-2.523 1.137-3.806s1.225-2.596 2.1-3.938 2.013-2.508 3.413-3.5 2.946-1.633 4.637-1.925l-.437 4.638c-1.429.292-2.698 1.035-3.806 2.231-1.108 1.167-1.867 2.567-2.275 4.2zm13.169 0c1.546-.613 2.785-.452 3.719.481s1.21 2.421.831 4.463c-.292 1.517-.933 2.683-1.925 3.5-.963.787-2.085 1.181-3.369 1.181-1.75 0-2.96-.671-3.631-2.013-.671-1.371-.802-3.208-.394-5.512.233-1.254.613-2.523 1.137-3.806s1.225-2.596 2.1-3.938 2.013-2.508 3.413-3.5 2.946-1.633 4.637-1.925l-.437 4.638c-1.429.292-2.698 1.035-3.806 2.231-1.108 1.167-1.867 2.567-2.275 4.2z"/>
    </symbol>
    <symbol id="running-man" viewBox="0 0 32 32">
      <path fill="#f4f4f4" style="fill: var(--color1, #f4f4f4)" opacity="0.2" d="M31.059 16c0 8.317-6.742 15.059-15.059 15.059s-15.059-6.742-15.059-15.059c0-8.317 6.742-15.059 15.059-15.059s15.059 6.742 15.059 15.059z" />
      <path fill="#f4f4f4" style="fill: var(--color1, #f4f4f4)" d="M23.275 11.907c-0.252-0.313-0.702-0.354-1.003-0.093l-1.976 1.723-0.909-2.337c-0.032-0.088-0.081-0.161-0.138-0.226-0.186-0.429-0.508-0.797-0.952-1.010-0.193-0.091-0.392-0.14-0.591-0.163-0.044-0.024-0.083-0.055-0.134-0.072l-3.477-1.006c-0.195-0.055-0.391-0.020-0.552 0.078-0.191 0.067-0.355 0.211-0.433 0.42l-1.309 3.495c-0.142 0.38 0.040 0.809 0.407 0.958 0.365 0.147 0.779-0.042 0.922-0.423l1.106-2.951 1.584 0.457c-0.039 0.065-0.080 0.126-0.112 0.195l-2.030 4.568c-0.029 0.067-0.045 0.135-0.066 0.205l-2.467 4.294-4.129 1.434c-0.467 0.363-0.566 1.046-0.221 1.531 0.347 0.486 1.008 0.589 1.474 0.231l4.225-1.511c0.129-0.097 0.223-0.225 0.294-0.363 0.053-0.059 0.114-0.105 0.154-0.178l1.471-2.56 2.611 2.31-2.794 3.269c-0.385 0.451-0.346 1.145 0.090 1.543 0.435 0.402 1.102 0.36 1.489-0.093l3.486-4.078c0.109-0.126 0.173-0.271 0.217-0.422 0.026-0.082 0.026-0.168 0.032-0.253 0-0.043 0.016-0.082 0.013-0.122-0.009-0.299-0.126-0.589-0.362-0.796l-2.403-2.127c0.173-0.171 0.32-0.375 0.427-0.614l1.556-3.499 0.499 1.379c0.021 0.122 0.061 0.243 0.144 0.343 0.075 0.093 0.171 0.155 0.273 0.198 0.010 0.005 0.023 0.007 0.035 0.010 0.065 0.024 0.13 0.047 0.198 0.050 0.080 0.008 0.162-0.003 0.244-0.027 0.002-0.001 0.003-0.001 0.003-0.001 0.022-0.005 0.044-0.001 0.066-0.011 0.116-0.045 0.204-0.122 0.281-0.212l2.835-2.499c0.301-0.263 0.174-0.729-0.079-1.042z" />
      <path fill="#f4f4f4"  d="M19.689 10.126c1.098 0 1.987-0.924 1.987-2.063s-0.89-2.063-1.987-2.063c-1.098 0-1.987 0.924-1.987 2.063s0.89 2.063 1.987 2.063z" />
    </symbol>
    <symbol id="dumbbells" viewBox="0 0 32 32">
      <path fill="#242424" style="fill: var(--color1, #242424)" d="M31.059 16c0 8.317-6.742 15.059-15.059 15.059s-15.059-6.742-15.059-15.059c0-8.317 6.742-15.059 15.059-15.059s15.059 6.742 15.059 15.059z" />
      <path fill="#f4f4f4" style="fill: var(--color2, #f4f4f4)" d="M10.918 11.966h-1.129c-0.313 0-0.565 0.27-0.565 0.605v2.622h-0.565c-0.104 0-0.188 0.091-0.188 0.202v1.21c0 0.111 0.085 0.202 0.188 0.202h0.565v2.622c0 0.335 0.252 0.605 0.565 0.605h1.129c0.313 0 0.565-0.27 0.565-0.605v-6.857c0-0.335-0.252-0.605-0.565-0.605zM23.341 15.193h-0.565v-2.622c0-0.335-0.252-0.605-0.565-0.605h-1.129c-0.313 0-0.565 0.27-0.565 0.605v6.857c0 0.335 0.252 0.605 0.565 0.605h1.129c0.313 0 0.565-0.27 0.565-0.605v-2.622h0.565c0.104 0 0.188-0.091 0.188-0.202v-1.21c0-0.111-0.085-0.202-0.188-0.202zM19.2 10.353h-1.129c-0.313 0-0.565 0.27-0.565 0.605v4.235h-3.012v-4.235c0-0.335-0.252-0.605-0.565-0.605h-1.129c-0.313 0-0.565 0.27-0.565 0.605v10.084c0 0.335 0.252 0.605 0.565 0.605h1.129c0.313 0 0.565-0.27 0.565-0.605v-4.235h3.012v4.235c0 0.335 0.252 0.605 0.565 0.605h1.129c0.313 0 0.565-0.27 0.565-0.605v-10.084c0-0.335-0.252-0.605-0.565-0.605z" />
    </symbol>
  </defs>
</svg>
